<svg xmlns="http://www.w3.org/2000/svg" xmlns:xlink="http://www.w3.org/1999/xlink" width="500" zoomAndPan="magnify" viewBox="0 0 375 374.999991" height="500" preserveAspectRatio="xMidYMid meet" version="1.0"><defs><g/></defs><g fill="#2b4060" fill-opacity="1"><g transform="translate(64.672149, 251.338203)"><g><path d="M 58.292969 2.496094 C 74.398438 2.722656 88.460938 -8.164062 99.574219 -19.734375 L 99.574219 -6.804688 C 99.574219 -2.496094 102.070312 0 106.378906 0 L 126.339844 0 L 126.339844 -2.949219 C 119.308594 -4.988281 117.265625 -10.207031 117.265625 -28.804688 L 117.265625 -181.683594 L 115.453125 -183.273438 L 90.503906 -172.386719 L 90.503906 -169.890625 C 96.625 -167.167969 99.574219 -164.898438 99.574219 -149.023438 L 99.574219 -105.925781 C 91.636719 -110.917969 81.203125 -114.773438 68.726562 -114.773438 C 29.714844 -114.546875 8.164062 -85.511719 8.164062 -53.984375 C 8.164062 -22 30.167969 2.269531 58.292969 2.496094 Z M 25.175781 -67.59375 C 25.175781 -91.636719 37.652344 -110.460938 61.695312 -110.460938 C 80.75 -110.460938 97.535156 -94.132812 99.574219 -79.386719 L 99.574219 -23.816406 C 90.730469 -14.742188 80.296875 -8.621094 68.5 -8.621094 C 37.652344 -8.621094 25.175781 -41.054688 25.175781 -67.59375 Z M 25.175781 -67.59375 "/></g></g></g><g fill="#2b4060" fill-opacity="1"><g transform="translate(175.133834, 251.338203)"><g><path d="M 66.460938 2.042969 C 104.339844 1.816406 125.433594 -28.125 125.433594 -59.65625 C 125.433594 -91.636719 104.792969 -115 75.984375 -115 C 60.335938 -115 45.589844 -107.742188 33.570312 -99.574219 L 33.570312 -181.683594 L 31.527344 -183.273438 L 6.804688 -172.386719 L 6.804688 -169.890625 C 12.929688 -167.167969 15.878906 -164.898438 15.878906 -149.023438 L 15.878906 0 L 18.144531 0 L 25.632812 -14.742188 C 33.796875 -5.898438 49.449219 2.042969 66.460938 2.042969 Z M 33.570312 -38.332031 L 33.570312 -96.171875 C 42.871094 -102.523438 53.53125 -107.515625 65.324219 -107.515625 C 97.308594 -107.515625 108.648438 -71.675781 108.648438 -46.5 C 108.648438 -20.1875 97.308594 -2.496094 73.71875 -2.496094 C 52.851562 -2.496094 33.570312 -22 33.570312 -38.332031 Z M 33.570312 -38.332031 "/></g></g></g></svg>