<svg xmlns="http://www.w3.org/2000/svg" xmlns:xlink="http://www.w3.org/1999/xlink" width="500" zoomAndPan="magnify" viewBox="0 0 375 374.999991" height="500" preserveAspectRatio="xMidYMid meet" version="1.0"><defs><g/></defs><g fill="#2b4060" fill-opacity="1"><g transform="translate(64.672149, 251.338203)"><g><path d="M 58.292969 2.496094 C 74.398438 2.722656 88.460938 -8.164062 99.574219 -19.734375 L 99.574219 -6.804688 C 99.574219 -2.496094 102.070312 0 106.378906 0 L 126.339844 0 L 126.339844 -2.949219 C 119.308594 -4.988281 117.265625 -10.207031 117.265625 -28.804688 L 117.265625 -181.683594 L 115.453125 -183.273438 L 90.503906 -172.386719 L 90.503906 -169.890625 C 96.625 -167.167969 99.574219 -164.898438 99.574219 -149.023438 L 99.574219 -105.925781 C 91.636719 -110.917969 81.203125 -114.773438 68.726562 -114.773438 C 29.714844 -114.546875 8.164062 -85.511719 8.164062 -53.984375 C 8.164062 -22 30.167969 2.269531 58.292969 2.496094 Z M 25.175781 -67.59375 C 25.175781 -91.636719 37.652344 -110.460938 61.695312 -110.460938 C 80.75 -110.460938 97.535156 -94.132812 99.574219 -79.386719 L 99.574219 -23.816406 C 90.730469 -14.742188 80.296875 -8.621094 68.5 -8.621094 C 37.652344 -8.621094 25.175781 -41.054688 25.175781 -67.59375 Z M 25.175781 -67.59375 "/></g></g></g><g fill="#2b4060" fill-opacity="1"><g transform="translate(175.133834, 251.338203)"><g><path d="M 66.460938 2.042969 C 104.339844 1.816406 125.433594 -28.125 125.433594 -59.65625 C 125.433594 -91.636719 104.792969 -115 75.984375 -115 C 60.335938 -115 45.589844 -107.742188 33.570312 -99.574219 L 33.570312 -181.683594 L 31.527344 -183.273438 L 6.804688 -172.386719 L 6.804688 -169.890625 C 12.929688 -167.167969 15.878906 -164.898438 15.878906 -149.023438 L 15.878906 0 L 18.144531 0 L 25.632812 -14.742188 C 33.796875 -5.898438 49.449219 2.042969 66.460938 2.042969 Z M 33.570312 -38.332031 L 33.570312 -96.171875 C 42.871094 -102.523438 53.53125 -107.515625 65.324219 -107.515625 C 97.308594 -107.515625 108.648438 -71.675781 108.648438 -46.5 C 108.648438 -20.1875 97.308594 -2.496094 73.71875 -2.496094 C 52.851562 -2.496094 33.570312 -22 33.570312 -38.332031 Z M 33.570312 -38.332031 "/></g></g></g><g fill="#2b4060" fill-opacity="1"><g transform="translate(71.651031, 283.91251)"><g><path d="M 1.8125 0 L 1.8125 -9.765625 L 5.015625 -9.765625 C 5.796875 -9.765625 6.503906 -9.640625 7.140625 -9.390625 C 7.785156 -9.148438 8.335938 -8.8125 8.796875 -8.375 C 9.253906 -7.945312 9.609375 -7.429688 9.859375 -6.828125 C 10.117188 -6.234375 10.25 -5.59375 10.25 -4.90625 C 10.25 -4.195312 10.113281 -3.539062 9.84375 -2.9375 C 9.582031 -2.332031 9.222656 -1.8125 8.765625 -1.375 C 8.304688 -0.9375 7.769531 -0.597656 7.15625 -0.359375 C 6.539062 -0.117188 5.882812 0 5.1875 0 Z M 3.078125 -0.609375 L 4.625 -0.609375 C 5.382812 -0.609375 6.03125 -0.734375 6.5625 -0.984375 C 7.101562 -1.242188 7.546875 -1.578125 7.890625 -1.984375 C 8.234375 -2.398438 8.484375 -2.859375 8.640625 -3.359375 C 8.796875 -3.867188 8.875 -4.378906 8.875 -4.890625 C 8.875 -5.441406 8.78125 -5.972656 8.59375 -6.484375 C 8.40625 -7.003906 8.128906 -7.460938 7.765625 -7.859375 C 7.410156 -8.253906 6.96875 -8.566406 6.4375 -8.796875 C 5.914062 -9.035156 5.3125 -9.15625 4.625 -9.15625 L 3.078125 -9.15625 Z M 3.078125 -0.609375 "/></g></g></g><g fill="#2b4060" fill-opacity="1"><g transform="translate(89.073481, 283.91251)"><g><path d="M 7.109375 -2.875 L 8.4375 0 L 9.796875 0 L 5.25 -9.765625 L 4.546875 -9.765625 L 0.421875 0 L 1.0625 0 L 2.28125 -2.875 Z M 6.8125 -3.5 L 2.546875 -3.5 L 4.5625 -8.203125 L 4.625 -8.203125 Z M 6.8125 -3.5 "/></g></g></g><g fill="#2b4060" fill-opacity="1"><g transform="translate(106.035741, 283.91251)"><g><path d="M 2.625 -9.765625 L 1.671875 -9.765625 L 1.671875 0 L 2.28125 0 L 2.28125 -7.96875 L 2.34375 -7.96875 L 6.65625 0.171875 L 6.90625 0.171875 L 11.3125 -7.90625 L 11.375 -7.90625 L 11.375 0 L 12.640625 0 L 12.640625 -9.765625 L 11.671875 -9.765625 L 7.15625 -1.375 L 7.109375 -1.375 Z M 2.625 -9.765625 "/></g></g></g><g fill="#2b4060" fill-opacity="1"><g transform="translate(127.097927, 283.91251)"><g><path d="M 2.234375 -9.765625 L 2.234375 0 L 3.5 0 L 3.5 -9.765625 Z M 2.234375 -9.765625 "/></g></g></g><g fill="#2b4060" fill-opacity="1"><g transform="translate(139.583728, 283.91251)"><g><path d="M 1.671875 -9.765625 L 1.671875 0 L 7.984375 0 L 7.984375 -0.765625 L 2.9375 -0.765625 L 2.9375 -4.859375 L 7.265625 -4.859375 L 7.265625 -5.5 L 2.9375 -5.5 L 2.9375 -9 L 7.984375 -9 L 7.984375 -9.765625 Z M 1.671875 -9.765625 "/></g></g></g><g fill="#2b4060" fill-opacity="1"><g transform="translate(154.733095, 283.91251)"><g><path d="M 9.546875 -9.765625 L 9.546875 -2.296875 L 9.484375 -2.296875 L 1.75 -9.9375 L 1.671875 -9.9375 L 1.671875 0 L 2.3125 0 L 2.3125 -7.46875 L 2.375 -7.46875 L 10.109375 0.171875 L 10.1875 0.171875 L 10.1875 -9.765625 Z M 9.546875 -9.765625 "/></g></g></g><g fill="#2b4060" fill-opacity="1"><g transform="translate(173.340901, 283.91251)"><g/></g></g><g fill="#2b4060" fill-opacity="1"><g transform="translate(184.97604, 283.91251)"><g><path d="M 1.671875 0 L 5.171875 0 C 5.796875 0 6.320312 -0.078125 6.75 -0.234375 C 7.175781 -0.398438 7.519531 -0.613281 7.78125 -0.875 C 8.039062 -1.132812 8.226562 -1.429688 8.34375 -1.765625 C 8.46875 -2.097656 8.53125 -2.429688 8.53125 -2.765625 C 8.53125 -3.296875 8.414062 -3.71875 8.1875 -4.03125 C 7.957031 -4.34375 7.679688 -4.582031 7.359375 -4.75 C 7.046875 -4.925781 6.722656 -5.039062 6.390625 -5.09375 C 6.054688 -5.144531 5.785156 -5.175781 5.578125 -5.1875 L 5.578125 -5.25 C 5.898438 -5.25 6.207031 -5.3125 6.5 -5.4375 C 6.789062 -5.5625 7.046875 -5.722656 7.265625 -5.921875 C 7.484375 -6.117188 7.65625 -6.347656 7.78125 -6.609375 C 7.914062 -6.878906 7.984375 -7.164062 7.984375 -7.46875 C 7.984375 -7.726562 7.925781 -7.992188 7.8125 -8.265625 C 7.695312 -8.535156 7.523438 -8.78125 7.296875 -9 C 7.078125 -9.21875 6.785156 -9.398438 6.421875 -9.546875 C 6.066406 -9.691406 5.644531 -9.765625 5.15625 -9.765625 L 1.671875 -9.765625 Z M 2.9375 -0.609375 L 2.9375 -4.890625 L 4.484375 -4.890625 C 4.929688 -4.890625 5.320312 -4.828125 5.65625 -4.703125 C 6 -4.578125 6.28125 -4.410156 6.5 -4.203125 C 6.71875 -4.003906 6.878906 -3.769531 6.984375 -3.5 C 7.085938 -3.226562 7.140625 -2.945312 7.140625 -2.65625 C 7.140625 -2.320312 7.082031 -2.03125 6.96875 -1.78125 C 6.851562 -1.53125 6.695312 -1.316406 6.5 -1.140625 C 6.300781 -0.960938 6.066406 -0.828125 5.796875 -0.734375 C 5.535156 -0.648438 5.257812 -0.609375 4.96875 -0.609375 Z M 2.9375 -5.5 L 2.9375 -9.15625 L 4.640625 -9.15625 C 5.003906 -9.15625 5.3125 -9.101562 5.5625 -9 C 5.820312 -8.894531 6.035156 -8.757812 6.203125 -8.59375 C 6.367188 -8.425781 6.488281 -8.234375 6.5625 -8.015625 C 6.632812 -7.804688 6.671875 -7.59375 6.671875 -7.375 C 6.671875 -7.113281 6.613281 -6.863281 6.5 -6.625 C 6.394531 -6.394531 6.25 -6.195312 6.0625 -6.03125 C 5.875 -5.863281 5.65625 -5.734375 5.40625 -5.640625 C 5.15625 -5.546875 4.894531 -5.5 4.625 -5.5 Z M 2.9375 -5.5 "/></g></g></g><g fill="#2b4060" fill-opacity="1"><g transform="translate(200.94818, 283.91251)"><g><path d="M 2.234375 -9.765625 L 2.234375 0 L 3.5 0 L 3.5 -9.765625 Z M 2.234375 -9.765625 "/></g></g></g><g fill="#2b4060" fill-opacity="1"><g transform="translate(213.433981, 283.91251)"><g><path d="M 7.109375 -2.875 L 8.4375 0 L 9.796875 0 L 5.25 -9.765625 L 4.546875 -9.765625 L 0.421875 0 L 1.0625 0 L 2.28125 -2.875 Z M 6.8125 -3.5 L 2.546875 -3.5 L 4.5625 -8.203125 L 4.625 -8.203125 Z M 6.8125 -3.5 "/></g></g></g><g fill="#2b4060" fill-opacity="1"><g transform="translate(230.396241, 283.91251)"><g><path d="M 1.671875 0 L 5.171875 0 C 5.796875 0 6.320312 -0.078125 6.75 -0.234375 C 7.175781 -0.398438 7.519531 -0.613281 7.78125 -0.875 C 8.039062 -1.132812 8.226562 -1.429688 8.34375 -1.765625 C 8.46875 -2.097656 8.53125 -2.429688 8.53125 -2.765625 C 8.53125 -3.296875 8.414062 -3.71875 8.1875 -4.03125 C 7.957031 -4.34375 7.679688 -4.582031 7.359375 -4.75 C 7.046875 -4.925781 6.722656 -5.039062 6.390625 -5.09375 C 6.054688 -5.144531 5.785156 -5.175781 5.578125 -5.1875 L 5.578125 -5.25 C 5.898438 -5.25 6.207031 -5.3125 6.5 -5.4375 C 6.789062 -5.5625 7.046875 -5.722656 7.265625 -5.921875 C 7.484375 -6.117188 7.65625 -6.347656 7.78125 -6.609375 C 7.914062 -6.878906 7.984375 -7.164062 7.984375 -7.46875 C 7.984375 -7.726562 7.925781 -7.992188 7.8125 -8.265625 C 7.695312 -8.535156 7.523438 -8.78125 7.296875 -9 C 7.078125 -9.21875 6.785156 -9.398438 6.421875 -9.546875 C 6.066406 -9.691406 5.644531 -9.765625 5.15625 -9.765625 L 1.671875 -9.765625 Z M 2.9375 -0.609375 L 2.9375 -4.890625 L 4.484375 -4.890625 C 4.929688 -4.890625 5.320312 -4.828125 5.65625 -4.703125 C 6 -4.578125 6.28125 -4.410156 6.5 -4.203125 C 6.71875 -4.003906 6.878906 -3.769531 6.984375 -3.5 C 7.085938 -3.226562 7.140625 -2.945312 7.140625 -2.65625 C 7.140625 -2.320312 7.082031 -2.03125 6.96875 -1.78125 C 6.851562 -1.53125 6.695312 -1.316406 6.5 -1.140625 C 6.300781 -0.960938 6.066406 -0.828125 5.796875 -0.734375 C 5.535156 -0.648438 5.257812 -0.609375 4.96875 -0.609375 Z M 2.9375 -5.5 L 2.9375 -9.15625 L 4.640625 -9.15625 C 5.003906 -9.15625 5.3125 -9.101562 5.5625 -9 C 5.820312 -8.894531 6.035156 -8.757812 6.203125 -8.59375 C 6.367188 -8.425781 6.488281 -8.234375 6.5625 -8.015625 C 6.632812 -7.804688 6.671875 -7.59375 6.671875 -7.375 C 6.671875 -7.113281 6.613281 -6.863281 6.5 -6.625 C 6.394531 -6.394531 6.25 -6.195312 6.0625 -6.03125 C 5.875 -5.863281 5.65625 -5.734375 5.40625 -5.640625 C 5.15625 -5.546875 4.894531 -5.5 4.625 -5.5 Z M 2.9375 -5.5 "/></g></g></g><g fill="#2b4060" fill-opacity="1"><g transform="translate(246.368381, 283.91251)"><g><path d="M 2.234375 -9.765625 L 2.234375 0 L 3.5 0 L 3.5 -9.765625 Z M 2.234375 -9.765625 "/></g></g></g><g fill="#2b4060" fill-opacity="1"><g transform="translate(258.854182, 283.91251)"><g><path d="M 7.109375 -2.875 L 8.4375 0 L 9.796875 0 L 5.25 -9.765625 L 4.546875 -9.765625 L 0.421875 0 L 1.0625 0 L 2.28125 -2.875 Z M 6.8125 -3.5 L 2.546875 -3.5 L 4.5625 -8.203125 L 4.625 -8.203125 Z M 6.8125 -3.5 "/></g></g></g><g fill="#2b4060" fill-opacity="1"><g transform="translate(275.816454, 283.91251)"><g><path d="M 9.546875 -9.765625 L 9.546875 -2.296875 L 9.484375 -2.296875 L 1.75 -9.9375 L 1.671875 -9.9375 L 1.671875 0 L 2.3125 0 L 2.3125 -7.46875 L 2.375 -7.46875 L 10.109375 0.171875 L 10.1875 0.171875 L 10.1875 -9.765625 Z M 9.546875 -9.765625 "/></g></g></g><g fill="#2b4060" fill-opacity="1"><g transform="translate(294.424271, 283.91251)"><g><path d="M 0.421875 -9.765625 L 3.796875 -3.703125 L 3.796875 0 L 5.0625 0 L 5.0625 -3.828125 L 8.5 -9.765625 L 7.75 -9.765625 L 4.765625 -4.625 L 4.703125 -4.625 L 1.859375 -9.765625 Z M 0.421875 -9.765625 "/></g></g></g></svg>